<svg xmlns="http://www.w3.org/2000/svg" viewBox="0 0 64 64">
  <!-- Body -->
  <rect x="20" y="24" width="24" height="16" fill="#D32F2F"/>
  
  <!-- Legs -->
  <rect x="16" y="32" width="4" height="4" fill="#D32F2F"/>
  <rect x="12" y="36" width="4" height="4" fill="#D32F2F"/>
  <rect x="44" y="32" width="4" height="4" fill="#D32F2F"/>
  <rect x="48" y="36" width="4" height="4" fill="#D32F2F"/>
  <rect x="20" y="40" width="4" height="4" fill="#D32F2F"/>
  <rect x="16" y="44" width="4" height="4" fill="#D32F2F"/>
  <rect x="40" y="40" width="4" height="4" fill="#D32F2F"/>
  <rect x="44" y="44" width="4" height="4" fill="#D32F2F"/>
  
  <!-- Left Claw -->
  <rect x="4" y="16" width="12" height="4" fill="#B71C1C"/>
  <rect x="0" y="20" width="16" height="8" fill="#B71C1C"/>
  <rect x="4" y="28" width="8" height="4" fill="#B71C1C"/>
  <!-- Right Claw -->
  <rect x="48" y="16" width="12" height="4" fill="#B71C1C"/>
  <rect x="48" y="20" width="16" height="8" fill="#B71C1C"/>
  <rect x="52" y="28" width="8" height="4" fill="#B71C1C"/>
  
  <!-- Eyes -->
  <rect x="24" y="20" width="4" height="4" fill="#FFFFFF"/>
  <rect x="36" y="20" width="4" height="4" fill="#FFFFFF"/>
  <rect x="26" y="22" width="2" height="2" fill="#000000"/>
  <rect x="38" y="22" width="2" height="2" fill="#000000"/>
  
  <!-- Mouth -->
  <rect x="28" y="32" width="8" height="2" fill="#B71C1C"/>
  
  <!-- Highlights -->
  <rect x="24" y="24" width="16" height="4" fill="#EF5350"/>
  <rect x="28" y="28" width="8" height="4" fill="#EF5350"/>
  
  <!-- Shading -->
  <rect x="20" y="36" width="24" height="4" fill="#B71C1C"/>
  <rect x="24" y="32" width="4" height="4" fill="#B71C1C"/>
  <rect x="36" y="32" width="4" height="4" fill="#B71C1C"/>
</svg>
